<!DOCTYPE svg PUBLIC "-//W3C//DTD SVG 1.1//EN" "http://www.w3.org/Graphics/SVG/1.1/DTD/svg11.dtd">
<!-- Uploaded to: SVG Repo, www.svgrepo.com, Transformed by: SVG Repo Mixer Tools -->
<svg fill="#000000" width="64px" height="64px" viewBox="0 0 24 24" id="watch-circle-5-o-clock" data-name="Flat Color" xmlns="http://www.w3.org/2000/svg" class="icon flat-color" stroke="#000000">
<g id="SVGRepo_bgCarrier" stroke-width="0"/>
<g id="SVGRepo_tracerCarrier" stroke-linecap="round" stroke-linejoin="round"/>
<g id="SVGRepo_iconCarrier">
<path id="secondary" d="M17,18.34V21a1,1,0,0,1-1,1H8a1,1,0,0,1-1-1V18.34a1,1,0,0,1,1.53-.85,6.58,6.58,0,0,0,6.94,0,1,1,0,0,1,1,0A1,1,0,0,1,17,18.34ZM16,2H8A1,1,0,0,0,7,3V5.66a1,1,0,0,0,1.53.85,6.58,6.58,0,0,1,6.94,0,1,1,0,0,0,.53.15,1,1,0,0,0,1-1V3A1,1,0,0,0,16,2Z" style="fill: #2ca9bc;"/>
<circle id="primary" cx="12" cy="12" r="8.5" style="fill: #000000;"/>
<path id="secondary-2" data-name="secondary" d="M14.14,13.41,13,12.12V9a1,1,0,0,0-2,0v3.5a1,1,0,0,0,.25.67l1.4,1.57a1,1,0,0,0,.75.33,1,1,0,0,0,.74-1.66Z" style="fill: #2ca9bc;"/>
</g>
</svg>